<?xml version="1.0" encoding="utf-8" standalone="no"?>
<!DOCTYPE svg PUBLIC "-//W3C//DTD SVG 1.1//EN"
  "http://www.w3.org/Graphics/SVG/1.1/DTD/svg11.dtd">
<svg xmlns:xlink="http://www.w3.org/1999/xlink" width="460.8pt" height="345.6pt" viewBox="0 0 460.8 345.6" xmlns="http://www.w3.org/2000/svg" version="1.1">
 <metadata>
  <rdf:RDF xmlns:dc="http://purl.org/dc/elements/1.1/" xmlns:cc="http://creativecommons.org/ns#" xmlns:rdf="http://www.w3.org/1999/02/22-rdf-syntax-ns#">
   <cc:Work>
    <dc:type rdf:resource="http://purl.org/dc/dcmitype/StillImage"/>
    <dc:date>2025-11-18T01:13:19.639974</dc:date>
    <dc:format>image/svg+xml</dc:format>
    <dc:creator>
     <cc:Agent>
      <dc:title>Matplotlib v3.10.7, https://matplotlib.org/</dc:title>
     </cc:Agent>
    </dc:creator>
   </cc:Work>
  </rdf:RDF>
 </metadata>
 <defs>
  <style type="text/css">*{stroke-linejoin: round; stroke-linecap: butt}</style>
 </defs>
 <g id="figure_1">
  <g id="patch_1">
   <path d="M 0 345.6 
L 460.8 345.6 
L 460.8 0 
L 0 0 
z
" style="fill: #ffffff"/>
  </g>
  <g id="axes_1">
   <g id="patch_2">
    <path d="M 50.87 303.64 
L 431.718213 303.64 
L 431.718213 26.88 
L 50.87 26.88 
z
" style="fill: #ffffff"/>
   </g>
   <g id="matplotlib.axis_1">
    <g id="xtick_1">
     <g id="line2d_1">
      <defs>
       <path id="mbae290beef" d="M 0 0 
L 0 3.5 
" style="stroke: #000000; stroke-width: 0.8"/>
      </defs>
      <g>
       <use xlink:href="#mbae290beef" x="71.444484" y="303.64" style="stroke: #000000; stroke-width: 0.8"/>
      </g>
     </g>
     <g id="text_1">
      <!-- 2023-01 -->
      <g transform="translate(50.553077 318.238437) scale(0.1 -0.1)">
       <defs>
        <path id="DejaVuSans-32" d="M 1228 531 
L 3431 531 
L 3431 0 
L 469 0 
L 469 531 
Q 828 903 1448 1529 
Q 2069 2156 2228 2338 
Q 2531 2678 2651 2914 
Q 2772 3150 2772 3378 
Q 2772 3750 2511 3984 
Q 2250 4219 1831 4219 
Q 1534 4219 1204 4116 
Q 875 4013 500 3803 
L 500 4441 
Q 881 4594 1212 4672 
Q 1544 4750 1819 4750 
Q 2544 4750 2975 4387 
Q 3406 4025 3406 3419 
Q 3406 3131 3298 2873 
Q 3191 2616 2906 2266 
Q 2828 2175 2409 1742 
Q 1991 1309 1228 531 
z
" transform="scale(0.015625)"/>
        <path id="DejaVuSans-30" d="M 2034 4250 
Q 1547 4250 1301 3770 
Q 1056 3291 1056 2328 
Q 1056 1369 1301 889 
Q 1547 409 2034 409 
Q 2525 409 2770 889 
Q 3016 1369 3016 2328 
Q 3016 3291 2770 3770 
Q 2525 4250 2034 4250 
z
M 2034 4750 
Q 2819 4750 3233 4129 
Q 3647 3509 3647 2328 
Q 3647 1150 3233 529 
Q 2819 -91 2034 -91 
Q 1250 -91 836 529 
Q 422 1150 422 2328 
Q 422 3509 836 4129 
Q 1250 4750 2034 4750 
z
" transform="scale(0.015625)"/>
        <path id="DejaVuSans-33" d="M 2597 2516 
Q 3050 2419 3304 2112 
Q 3559 1806 3559 1356 
Q 3559 666 3084 287 
Q 2609 -91 1734 -91 
Q 1441 -91 1130 -33 
Q 819 25 488 141 
L 488 750 
Q 750 597 1062 519 
Q 1375 441 1716 441 
Q 2309 441 2620 675 
Q 2931 909 2931 1356 
Q 2931 1769 2642 2001 
Q 2353 2234 1838 2234 
L 1294 2234 
L 1294 2753 
L 1863 2753 
Q 2328 2753 2575 2939 
Q 2822 3125 2822 3475 
Q 2822 3834 2567 4026 
Q 2313 4219 1838 4219 
Q 1578 4219 1281 4162 
Q 984 4106 628 3988 
L 628 4550 
Q 988 4650 1302 4700 
Q 1616 4750 1894 4750 
Q 2613 4750 3031 4423 
Q 3450 4097 3450 3541 
Q 3450 3153 3228 2886 
Q 3006 2619 2597 2516 
z
" transform="scale(0.015625)"/>
        <path id="DejaVuSans-2d" d="M 313 2009 
L 1997 2009 
L 1997 1497 
L 313 1497 
L 313 2009 
z
" transform="scale(0.015625)"/>
        <path id="DejaVuSans-31" d="M 794 531 
L 1825 531 
L 1825 4091 
L 703 3866 
L 703 4441 
L 1819 4666 
L 2450 4666 
L 2450 531 
L 3481 531 
L 3481 0 
L 794 0 
L 794 531 
z
" transform="scale(0.015625)"/>
       </defs>
       <use xlink:href="#DejaVuSans-32"/>
       <use xlink:href="#DejaVuSans-30" transform="translate(63.623047 0)"/>
       <use xlink:href="#DejaVuSans-32" transform="translate(127.246094 0)"/>
       <use xlink:href="#DejaVuSans-33" transform="translate(190.869141 0)"/>
       <use xlink:href="#DejaVuSans-2d" transform="translate(254.492188 0)"/>
       <use xlink:href="#DejaVuSans-30" transform="translate(290.576172 0)"/>
       <use xlink:href="#DejaVuSans-31" transform="translate(354.199219 0)"/>
      </g>
     </g>
    </g>
    <g id="xtick_2">
     <g id="line2d_2">
      <g>
       <use xlink:href="#mbae290beef" x="110.602898" y="303.64" style="stroke: #000000; stroke-width: 0.8"/>
      </g>
     </g>
     <g id="text_2">
      <!-- 2023-05 -->
      <g transform="translate(89.711492 318.238437) scale(0.1 -0.1)">
       <defs>
        <path id="DejaVuSans-35" d="M 691 4666 
L 3169 4666 
L 3169 4134 
L 1269 4134 
L 1269 2991 
Q 1406 3038 1543 3061 
Q 1681 3084 1819 3084 
Q 2600 3084 3056 2656 
Q 3513 2228 3513 1497 
Q 3513 744 3044 326 
Q 2575 -91 1722 -91 
Q 1428 -91 1123 -41 
Q 819 9 494 109 
L 494 744 
Q 775 591 1075 516 
Q 1375 441 1709 441 
Q 2250 441 2565 725 
Q 2881 1009 2881 1497 
Q 2881 1984 2565 2268 
Q 2250 2553 1709 2553 
Q 1456 2553 1204 2497 
Q 953 2441 691 2322 
L 691 4666 
z
" transform="scale(0.015625)"/>
       </defs>
       <use xlink:href="#DejaVuSans-32"/>
       <use xlink:href="#DejaVuSans-30" transform="translate(63.623047 0)"/>
       <use xlink:href="#DejaVuSans-32" transform="translate(127.246094 0)"/>
       <use xlink:href="#DejaVuSans-33" transform="translate(190.869141 0)"/>
       <use xlink:href="#DejaVuSans-2d" transform="translate(254.492188 0)"/>
       <use xlink:href="#DejaVuSans-30" transform="translate(290.576172 0)"/>
       <use xlink:href="#DejaVuSans-35" transform="translate(354.199219 0)"/>
      </g>
     </g>
    </g>
    <g id="xtick_3">
     <g id="line2d_3">
      <g>
       <use xlink:href="#mbae290beef" x="150.740273" y="303.64" style="stroke: #000000; stroke-width: 0.8"/>
      </g>
     </g>
     <g id="text_3">
      <!-- 2023-09 -->
      <g transform="translate(129.848867 318.238437) scale(0.1 -0.1)">
       <defs>
        <path id="DejaVuSans-39" d="M 703 97 
L 703 672 
Q 941 559 1184 500 
Q 1428 441 1663 441 
Q 2288 441 2617 861 
Q 2947 1281 2994 2138 
Q 2813 1869 2534 1725 
Q 2256 1581 1919 1581 
Q 1219 1581 811 2004 
Q 403 2428 403 3163 
Q 403 3881 828 4315 
Q 1253 4750 1959 4750 
Q 2769 4750 3195 4129 
Q 3622 3509 3622 2328 
Q 3622 1225 3098 567 
Q 2575 -91 1691 -91 
Q 1453 -91 1209 -44 
Q 966 3 703 97 
z
M 1959 2075 
Q 2384 2075 2632 2365 
Q 2881 2656 2881 3163 
Q 2881 3666 2632 3958 
Q 2384 4250 1959 4250 
Q 1534 4250 1286 3958 
Q 1038 3666 1038 3163 
Q 1038 2656 1286 2365 
Q 1534 2075 1959 2075 
z
" transform="scale(0.015625)"/>
       </defs>
       <use xlink:href="#DejaVuSans-32"/>
       <use xlink:href="#DejaVuSans-30" transform="translate(63.623047 0)"/>
       <use xlink:href="#DejaVuSans-32" transform="translate(127.246094 0)"/>
       <use xlink:href="#DejaVuSans-33" transform="translate(190.869141 0)"/>
       <use xlink:href="#DejaVuSans-2d" transform="translate(254.492188 0)"/>
       <use xlink:href="#DejaVuSans-30" transform="translate(290.576172 0)"/>
       <use xlink:href="#DejaVuSans-39" transform="translate(354.199219 0)"/>
      </g>
     </g>
    </g>
    <g id="xtick_4">
     <g id="line2d_4">
      <g>
       <use xlink:href="#mbae290beef" x="190.551328" y="303.64" style="stroke: #000000; stroke-width: 0.8"/>
      </g>
     </g>
     <g id="text_4">
      <!-- 2024-01 -->
      <g transform="translate(169.659921 318.238437) scale(0.1 -0.1)">
       <defs>
        <path id="DejaVuSans-34" d="M 2419 4116 
L 825 1625 
L 2419 1625 
L 2419 4116 
z
M 2253 4666 
L 3047 4666 
L 3047 1625 
L 3713 1625 
L 3713 1100 
L 3047 1100 
L 3047 0 
L 2419 0 
L 2419 1100 
L 313 1100 
L 313 1709 
L 2253 4666 
z
" transform="scale(0.015625)"/>
       </defs>
       <use xlink:href="#DejaVuSans-32"/>
       <use xlink:href="#DejaVuSans-30" transform="translate(63.623047 0)"/>
       <use xlink:href="#DejaVuSans-32" transform="translate(127.246094 0)"/>
       <use xlink:href="#DejaVuSans-34" transform="translate(190.869141 0)"/>
       <use xlink:href="#DejaVuSans-2d" transform="translate(254.492188 0)"/>
       <use xlink:href="#DejaVuSans-30" transform="translate(290.576172 0)"/>
       <use xlink:href="#DejaVuSans-31" transform="translate(354.199219 0)"/>
      </g>
     </g>
    </g>
    <g id="xtick_5">
     <g id="line2d_5">
      <g>
       <use xlink:href="#mbae290beef" x="230.036062" y="303.64" style="stroke: #000000; stroke-width: 0.8"/>
      </g>
     </g>
     <g id="text_5">
      <!-- 2024-05 -->
      <g transform="translate(209.144656 318.238437) scale(0.1 -0.1)">
       <use xlink:href="#DejaVuSans-32"/>
       <use xlink:href="#DejaVuSans-30" transform="translate(63.623047 0)"/>
       <use xlink:href="#DejaVuSans-32" transform="translate(127.246094 0)"/>
       <use xlink:href="#DejaVuSans-34" transform="translate(190.869141 0)"/>
       <use xlink:href="#DejaVuSans-2d" transform="translate(254.492188 0)"/>
       <use xlink:href="#DejaVuSans-30" transform="translate(290.576172 0)"/>
       <use xlink:href="#DejaVuSans-35" transform="translate(354.199219 0)"/>
      </g>
     </g>
    </g>
    <g id="xtick_6">
     <g id="line2d_6">
      <g>
       <use xlink:href="#mbae290beef" x="270.173437" y="303.64" style="stroke: #000000; stroke-width: 0.8"/>
      </g>
     </g>
     <g id="text_6">
      <!-- 2024-09 -->
      <g transform="translate(249.282031 318.238437) scale(0.1 -0.1)">
       <use xlink:href="#DejaVuSans-32"/>
       <use xlink:href="#DejaVuSans-30" transform="translate(63.623047 0)"/>
       <use xlink:href="#DejaVuSans-32" transform="translate(127.246094 0)"/>
       <use xlink:href="#DejaVuSans-34" transform="translate(190.869141 0)"/>
       <use xlink:href="#DejaVuSans-2d" transform="translate(254.492188 0)"/>
       <use xlink:href="#DejaVuSans-30" transform="translate(290.576172 0)"/>
       <use xlink:href="#DejaVuSans-39" transform="translate(354.199219 0)"/>
      </g>
     </g>
    </g>
    <g id="xtick_7">
     <g id="line2d_7">
      <g>
       <use xlink:href="#mbae290beef" x="309.984492" y="303.64" style="stroke: #000000; stroke-width: 0.8"/>
      </g>
     </g>
     <g id="text_7">
      <!-- 2025-01 -->
      <g transform="translate(289.093086 318.238437) scale(0.1 -0.1)">
       <use xlink:href="#DejaVuSans-32"/>
       <use xlink:href="#DejaVuSans-30" transform="translate(63.623047 0)"/>
       <use xlink:href="#DejaVuSans-32" transform="translate(127.246094 0)"/>
       <use xlink:href="#DejaVuSans-35" transform="translate(190.869141 0)"/>
       <use xlink:href="#DejaVuSans-2d" transform="translate(254.492188 0)"/>
       <use xlink:href="#DejaVuSans-30" transform="translate(290.576172 0)"/>
       <use xlink:href="#DejaVuSans-31" transform="translate(354.199219 0)"/>
      </g>
     </g>
    </g>
    <g id="xtick_8">
     <g id="line2d_8">
      <g>
       <use xlink:href="#mbae290beef" x="349.142907" y="303.64" style="stroke: #000000; stroke-width: 0.8"/>
      </g>
     </g>
     <g id="text_8">
      <!-- 2025-05 -->
      <g transform="translate(328.2515 318.238437) scale(0.1 -0.1)">
       <use xlink:href="#DejaVuSans-32"/>
       <use xlink:href="#DejaVuSans-30" transform="translate(63.623047 0)"/>
       <use xlink:href="#DejaVuSans-32" transform="translate(127.246094 0)"/>
       <use xlink:href="#DejaVuSans-35" transform="translate(190.869141 0)"/>
       <use xlink:href="#DejaVuSans-2d" transform="translate(254.492188 0)"/>
       <use xlink:href="#DejaVuSans-30" transform="translate(290.576172 0)"/>
       <use xlink:href="#DejaVuSans-35" transform="translate(354.199219 0)"/>
      </g>
     </g>
    </g>
    <g id="xtick_9">
     <g id="line2d_9">
      <g>
       <use xlink:href="#mbae290beef" x="389.280281" y="303.64" style="stroke: #000000; stroke-width: 0.8"/>
      </g>
     </g>
     <g id="text_9">
      <!-- 2025-09 -->
      <g transform="translate(368.388875 318.238437) scale(0.1 -0.1)">
       <use xlink:href="#DejaVuSans-32"/>
       <use xlink:href="#DejaVuSans-30" transform="translate(63.623047 0)"/>
       <use xlink:href="#DejaVuSans-32" transform="translate(127.246094 0)"/>
       <use xlink:href="#DejaVuSans-35" transform="translate(190.869141 0)"/>
       <use xlink:href="#DejaVuSans-2d" transform="translate(254.492188 0)"/>
       <use xlink:href="#DejaVuSans-30" transform="translate(290.576172 0)"/>
       <use xlink:href="#DejaVuSans-39" transform="translate(354.199219 0)"/>
      </g>
     </g>
    </g>
    <g id="xtick_10">
     <g id="line2d_10">
      <g>
       <use xlink:href="#mbae290beef" x="429.091336" y="303.64" style="stroke: #000000; stroke-width: 0.8"/>
      </g>
     </g>
     <g id="text_10">
      <!-- 2026-01 -->
      <g transform="translate(408.19993 318.238437) scale(0.1 -0.1)">
       <defs>
        <path id="DejaVuSans-36" d="M 2113 2584 
Q 1688 2584 1439 2293 
Q 1191 2003 1191 1497 
Q 1191 994 1439 701 
Q 1688 409 2113 409 
Q 2538 409 2786 701 
Q 3034 994 3034 1497 
Q 3034 2003 2786 2293 
Q 2538 2584 2113 2584 
z
M 3366 4563 
L 3366 3988 
Q 3128 4100 2886 4159 
Q 2644 4219 2406 4219 
Q 1781 4219 1451 3797 
Q 1122 3375 1075 2522 
Q 1259 2794 1537 2939 
Q 1816 3084 2150 3084 
Q 2853 3084 3261 2657 
Q 3669 2231 3669 1497 
Q 3669 778 3244 343 
Q 2819 -91 2113 -91 
Q 1303 -91 875 529 
Q 447 1150 447 2328 
Q 447 3434 972 4092 
Q 1497 4750 2381 4750 
Q 2619 4750 2861 4703 
Q 3103 4656 3366 4563 
z
" transform="scale(0.015625)"/>
       </defs>
       <use xlink:href="#DejaVuSans-32"/>
       <use xlink:href="#DejaVuSans-30" transform="translate(63.623047 0)"/>
       <use xlink:href="#DejaVuSans-32" transform="translate(127.246094 0)"/>
       <use xlink:href="#DejaVuSans-36" transform="translate(190.869141 0)"/>
       <use xlink:href="#DejaVuSans-2d" transform="translate(254.492188 0)"/>
       <use xlink:href="#DejaVuSans-30" transform="translate(290.576172 0)"/>
       <use xlink:href="#DejaVuSans-31" transform="translate(354.199219 0)"/>
      </g>
     </g>
    </g>
    <g id="text_11">
     <!-- Tarih -->
     <g transform="translate(229.387857 331.916562) scale(0.1 -0.1)">
      <defs>
       <path id="DejaVuSans-54" d="M -19 4666 
L 3928 4666 
L 3928 4134 
L 2272 4134 
L 2272 0 
L 1638 0 
L 1638 4134 
L -19 4134 
L -19 4666 
z
" transform="scale(0.015625)"/>
       <path id="DejaVuSans-61" d="M 2194 1759 
Q 1497 1759 1228 1600 
Q 959 1441 959 1056 
Q 959 750 1161 570 
Q 1363 391 1709 391 
Q 2188 391 2477 730 
Q 2766 1069 2766 1631 
L 2766 1759 
L 2194 1759 
z
M 3341 1997 
L 3341 0 
L 2766 0 
L 2766 531 
Q 2569 213 2275 61 
Q 1981 -91 1556 -91 
Q 1019 -91 701 211 
Q 384 513 384 1019 
Q 384 1609 779 1909 
Q 1175 2209 1959 2209 
L 2766 2209 
L 2766 2266 
Q 2766 2663 2505 2880 
Q 2244 3097 1772 3097 
Q 1472 3097 1187 3025 
Q 903 2953 641 2809 
L 641 3341 
Q 956 3463 1253 3523 
Q 1550 3584 1831 3584 
Q 2591 3584 2966 3190 
Q 3341 2797 3341 1997 
z
" transform="scale(0.015625)"/>
       <path id="DejaVuSans-72" d="M 2631 2963 
Q 2534 3019 2420 3045 
Q 2306 3072 2169 3072 
Q 1681 3072 1420 2755 
Q 1159 2438 1159 1844 
L 1159 0 
L 581 0 
L 581 3500 
L 1159 3500 
L 1159 2956 
Q 1341 3275 1631 3429 
Q 1922 3584 2338 3584 
Q 2397 3584 2469 3576 
Q 2541 3569 2628 3553 
L 2631 2963 
z
" transform="scale(0.015625)"/>
       <path id="DejaVuSans-69" d="M 603 3500 
L 1178 3500 
L 1178 0 
L 603 0 
L 603 3500 
z
M 603 4863 
L 1178 4863 
L 1178 4134 
L 603 4134 
L 603 4863 
z
" transform="scale(0.015625)"/>
       <path id="DejaVuSans-68" d="M 3513 2113 
L 3513 0 
L 2938 0 
L 2938 2094 
Q 2938 2591 2744 2837 
Q 2550 3084 2163 3084 
Q 1697 3084 1428 2787 
Q 1159 2491 1159 1978 
L 1159 0 
L 581 0 
L 581 4863 
L 1159 4863 
L 1159 2956 
Q 1366 3272 1645 3428 
Q 1925 3584 2291 3584 
Q 2894 3584 3203 3211 
Q 3513 2838 3513 2113 
z
" transform="scale(0.015625)"/>
      </defs>
      <use xlink:href="#DejaVuSans-54"/>
      <use xlink:href="#DejaVuSans-61" transform="translate(44.583984 0)"/>
      <use xlink:href="#DejaVuSans-72" transform="translate(105.863281 0)"/>
      <use xlink:href="#DejaVuSans-69" transform="translate(146.976562 0)"/>
      <use xlink:href="#DejaVuSans-68" transform="translate(174.759766 0)"/>
     </g>
    </g>
   </g>
   <g id="matplotlib.axis_2">
    <g id="ytick_1">
     <g id="line2d_11">
      <defs>
       <path id="mde8a9808d0" d="M 0 0 
L -3.5 0 
" style="stroke: #000000; stroke-width: 0.8"/>
      </defs>
      <g>
       <use xlink:href="#mde8a9808d0" x="50.87" y="291.777801" style="stroke: #000000; stroke-width: 0.8"/>
      </g>
     </g>
     <g id="text_12">
      <!-- 0 -->
      <g transform="translate(37.5075 295.577019) scale(0.1 -0.1)">
       <use xlink:href="#DejaVuSans-30"/>
      </g>
     </g>
    </g>
    <g id="ytick_2">
     <g id="line2d_12">
      <g>
       <use xlink:href="#mde8a9808d0" x="50.87" y="248.274732" style="stroke: #000000; stroke-width: 0.8"/>
      </g>
     </g>
     <g id="text_13">
      <!-- 50 -->
      <g transform="translate(31.145 252.07395) scale(0.1 -0.1)">
       <use xlink:href="#DejaVuSans-35"/>
       <use xlink:href="#DejaVuSans-30" transform="translate(63.623047 0)"/>
      </g>
     </g>
    </g>
    <g id="ytick_3">
     <g id="line2d_13">
      <g>
       <use xlink:href="#mde8a9808d0" x="50.87" y="204.771662" style="stroke: #000000; stroke-width: 0.8"/>
      </g>
     </g>
     <g id="text_14">
      <!-- 100 -->
      <g transform="translate(24.7825 208.570881) scale(0.1 -0.1)">
       <use xlink:href="#DejaVuSans-31"/>
       <use xlink:href="#DejaVuSans-30" transform="translate(63.623047 0)"/>
       <use xlink:href="#DejaVuSans-30" transform="translate(127.246094 0)"/>
      </g>
     </g>
    </g>
    <g id="ytick_4">
     <g id="line2d_14">
      <g>
       <use xlink:href="#mde8a9808d0" x="50.87" y="161.268593" style="stroke: #000000; stroke-width: 0.8"/>
      </g>
     </g>
     <g id="text_15">
      <!-- 150 -->
      <g transform="translate(24.7825 165.067812) scale(0.1 -0.1)">
       <use xlink:href="#DejaVuSans-31"/>
       <use xlink:href="#DejaVuSans-35" transform="translate(63.623047 0)"/>
       <use xlink:href="#DejaVuSans-30" transform="translate(127.246094 0)"/>
      </g>
     </g>
    </g>
    <g id="ytick_5">
     <g id="line2d_15">
      <g>
       <use xlink:href="#mde8a9808d0" x="50.87" y="117.765524" style="stroke: #000000; stroke-width: 0.8"/>
      </g>
     </g>
     <g id="text_16">
      <!-- 200 -->
      <g transform="translate(24.7825 121.564743) scale(0.1 -0.1)">
       <use xlink:href="#DejaVuSans-32"/>
       <use xlink:href="#DejaVuSans-30" transform="translate(63.623047 0)"/>
       <use xlink:href="#DejaVuSans-30" transform="translate(127.246094 0)"/>
      </g>
     </g>
    </g>
    <g id="ytick_6">
     <g id="line2d_16">
      <g>
       <use xlink:href="#mde8a9808d0" x="50.87" y="74.262455" style="stroke: #000000; stroke-width: 0.8"/>
      </g>
     </g>
     <g id="text_17">
      <!-- 250 -->
      <g transform="translate(24.7825 78.061674) scale(0.1 -0.1)">
       <use xlink:href="#DejaVuSans-32"/>
       <use xlink:href="#DejaVuSans-35" transform="translate(63.623047 0)"/>
       <use xlink:href="#DejaVuSans-30" transform="translate(127.246094 0)"/>
      </g>
     </g>
    </g>
    <g id="ytick_7">
     <g id="line2d_17">
      <g>
       <use xlink:href="#mde8a9808d0" x="50.87" y="30.759386" style="stroke: #000000; stroke-width: 0.8"/>
      </g>
     </g>
     <g id="text_18">
      <!-- 300 -->
      <g transform="translate(24.7825 34.558605) scale(0.1 -0.1)">
       <use xlink:href="#DejaVuSans-33"/>
       <use xlink:href="#DejaVuSans-30" transform="translate(63.623047 0)"/>
       <use xlink:href="#DejaVuSans-30" transform="translate(127.246094 0)"/>
      </g>
     </g>
    </g>
    <g id="text_19">
     <!-- Kapanış Fiyatı -->
     <g transform="translate(18.702813 199.780312) rotate(-90) scale(0.1 -0.1)">
      <defs>
       <path id="DejaVuSans-4b" d="M 628 4666 
L 1259 4666 
L 1259 2694 
L 3353 4666 
L 4166 4666 
L 1850 2491 
L 4331 0 
L 3500 0 
L 1259 2247 
L 1259 0 
L 628 0 
L 628 4666 
z
" transform="scale(0.015625)"/>
       <path id="DejaVuSans-70" d="M 1159 525 
L 1159 -1331 
L 581 -1331 
L 581 3500 
L 1159 3500 
L 1159 2969 
Q 1341 3281 1617 3432 
Q 1894 3584 2278 3584 
Q 2916 3584 3314 3078 
Q 3713 2572 3713 1747 
Q 3713 922 3314 415 
Q 2916 -91 2278 -91 
Q 1894 -91 1617 61 
Q 1341 213 1159 525 
z
M 3116 1747 
Q 3116 2381 2855 2742 
Q 2594 3103 2138 3103 
Q 1681 3103 1420 2742 
Q 1159 2381 1159 1747 
Q 1159 1113 1420 752 
Q 1681 391 2138 391 
Q 2594 391 2855 752 
Q 3116 1113 3116 1747 
z
" transform="scale(0.015625)"/>
       <path id="DejaVuSans-6e" d="M 3513 2113 
L 3513 0 
L 2938 0 
L 2938 2094 
Q 2938 2591 2744 2837 
Q 2550 3084 2163 3084 
Q 1697 3084 1428 2787 
Q 1159 2491 1159 1978 
L 1159 0 
L 581 0 
L 581 3500 
L 1159 3500 
L 1159 2956 
Q 1366 3272 1645 3428 
Q 1925 3584 2291 3584 
Q 2894 3584 3203 3211 
Q 3513 2838 3513 2113 
z
" transform="scale(0.015625)"/>
       <path id="DejaVuSans-131" d="M 603 3500 
L 1178 3500 
L 1178 0 
L 603 0 
L 603 3500 
z
M 891 3584 
L 891 3584 
z
" transform="scale(0.015625)"/>
       <path id="DejaVuSans-15f" d="M 2834 3397 
L 2834 2853 
Q 2591 2978 2328 3040 
Q 2066 3103 1784 3103 
Q 1356 3103 1142 2972 
Q 928 2841 928 2578 
Q 928 2378 1081 2264 
Q 1234 2150 1697 2047 
L 1894 2003 
Q 2506 1872 2764 1633 
Q 3022 1394 3022 966 
Q 3022 478 2636 193 
Q 2250 -91 1575 -91 
Q 1294 -91 989 -36 
Q 684 19 347 128 
L 347 722 
Q 666 556 975 473 
Q 1284 391 1588 391 
Q 1994 391 2212 530 
Q 2431 669 2431 922 
Q 2431 1156 2273 1281 
Q 2116 1406 1581 1522 
L 1381 1569 
Q 847 1681 609 1914 
Q 372 2147 372 2553 
Q 372 3047 722 3315 
Q 1072 3584 1716 3584 
Q 2034 3584 2315 3537 
Q 2597 3491 2834 3397 
z
M 1935 0 
Q 2106 -194 2190 -358 
Q 2275 -522 2275 -672 
Q 2275 -950 2087 -1092 
Q 1900 -1234 1531 -1234 
Q 1388 -1234 1252 -1215 
Q 1116 -1197 981 -1159 
L 981 -750 
Q 1088 -803 1203 -826 
Q 1319 -850 1466 -850 
Q 1650 -850 1744 -775 
Q 1838 -700 1838 -556 
Q 1838 -463 1770 -327 
Q 1703 -191 1563 0 
L 1935 0 
z
" transform="scale(0.015625)"/>
       <path id="DejaVuSans-20" transform="scale(0.015625)"/>
       <path id="DejaVuSans-46" d="M 628 4666 
L 3309 4666 
L 3309 4134 
L 1259 4134 
L 1259 2759 
L 3109 2759 
L 3109 2228 
L 1259 2228 
L 1259 0 
L 628 0 
L 628 4666 
z
" transform="scale(0.015625)"/>
       <path id="DejaVuSans-79" d="M 2059 -325 
Q 1816 -950 1584 -1140 
Q 1353 -1331 966 -1331 
L 506 -1331 
L 506 -850 
L 844 -850 
Q 1081 -850 1212 -737 
Q 1344 -625 1503 -206 
L 1606 56 
L 191 3500 
L 800 3500 
L 1894 763 
L 2988 3500 
L 3597 3500 
L 2059 -325 
z
" transform="scale(0.015625)"/>
       <path id="DejaVuSans-74" d="M 1172 4494 
L 1172 3500 
L 2356 3500 
L 2356 3053 
L 1172 3053 
L 1172 1153 
Q 1172 725 1289 603 
Q 1406 481 1766 481 
L 2356 481 
L 2356 0 
L 1766 0 
Q 1100 0 847 248 
Q 594 497 594 1153 
L 594 3053 
L 172 3053 
L 172 3500 
L 594 3500 
L 594 4494 
L 1172 4494 
z
" transform="scale(0.015625)"/>
      </defs>
      <use xlink:href="#DejaVuSans-4b"/>
      <use xlink:href="#DejaVuSans-61" transform="translate(63.826172 0)"/>
      <use xlink:href="#DejaVuSans-70" transform="translate(125.105469 0)"/>
      <use xlink:href="#DejaVuSans-61" transform="translate(188.582031 0)"/>
      <use xlink:href="#DejaVuSans-6e" transform="translate(249.861328 0)"/>
      <use xlink:href="#DejaVuSans-131" transform="translate(313.240234 0)"/>
      <use xlink:href="#DejaVuSans-15f" transform="translate(341.023438 0)"/>
      <use xlink:href="#DejaVuSans-20" transform="translate(393.123047 0)"/>
      <use xlink:href="#DejaVuSans-46" transform="translate(424.910156 0)"/>
      <use xlink:href="#DejaVuSans-69" transform="translate(475.179688 0)"/>
      <use xlink:href="#DejaVuSans-79" transform="translate(502.962891 0)"/>
      <use xlink:href="#DejaVuSans-61" transform="translate(562.142578 0)"/>
      <use xlink:href="#DejaVuSans-74" transform="translate(623.421875 0)"/>
      <use xlink:href="#DejaVuSans-131" transform="translate(662.630859 0)"/>
     </g>
    </g>
   </g>
   <g id="line2d_18">
    <path d="M 68.181282 291.06 
L 68.507603 290.98822 
L 69.812883 290.822473 
L 70.791843 290.506641 
L 72.097124 290.240402 
L 72.423444 290.087706 
L 72.749764 290.256063 
L 73.076084 290.104673 
L 74.381365 289.903688 
L 75.034005 290.172537 
L 75.360325 290.261284 
L 76.339285 290.309572 
L 76.665606 290.163402 
L 77.644566 290.160792 
L 79.276167 290.224741 
L 79.928807 290.265199 
L 83.518328 290.423115 
L 86.128889 290.301742 
L 86.455209 290.443997 
L 92.328971 290.270419 
L 92.655291 290.254758 
L 93.307932 289.936316 
L 93.634252 290.105978 
L 95.592173 290.015926 
L 95.918493 289.868451 
L 96.897453 289.741857 
L 97.223773 289.902383 
L 101.792255 289.71967 
L 102.444895 289.981994 
L 104.729136 290.035503 
L 107.013377 290.149046 
L 108.644977 290.197334 
L 109.623938 290.28347 
L 111.581858 290.404844 
L 115.4977 290.440081 
L 115.82402 290.306962 
L 116.15034 290.393098 
L 120.392502 290.162097 
L 120.718822 290.081181 
L 121.045142 290.13208 
L 123.003063 290.194724 
L 126.592584 290.289996 
L 127.245224 290.35525 
L 127.897865 290.271724 
L 133.771627 290.055079 
L 134.097947 290.21169 
L 134.750587 290.21169 
L 136.382188 290.175148 
L 138.992749 290.015926 
L 139.319069 289.92979 
L 140.950669 289.881502 
L 141.276989 289.805807 
L 141.60331 289.885417 
L 145.192831 289.775789 
L 146.171791 289.753603 
L 147.803392 289.465177 
L 148.456032 289.551314 
L 149.761313 289.625704 
L 150.413953 289.439076 
L 150.740273 289.519991 
L 152.045553 289.572195 
L 152.698194 289.396008 
L 154.003474 289.535652 
L 154.656114 289.482144 
L 155.308755 289.624399 
L 159.550916 289.509551 
L 159.877236 289.368601 
L 161.182517 289.262888 
L 161.508837 289.313787 
L 161.835157 289.244617 
L 162.161477 289.330753 
L 163.466758 289.337278 
L 163.793078 289.28377 
L 165.424678 289.519991 
L 165.750999 289.457347 
L 166.077319 289.527822 
L 166.729959 289.49389 
L 167.708919 289.533042 
L 168.035239 289.426025 
L 168.36156 289.625704 
L 169.0142 289.324228 
L 169.99316 289.134989 
L 170.6458 289.441686 
L 173.582681 289.36338 
L 175.214282 289.50694 
L 177.172203 289.28638 
L 177.498523 289.15326 
L 177.824843 288.890937 
L 180.109084 288.890937 
L 180.435404 289.179362 
L 184.024925 289.346414 
L 184.351245 289.437771 
L 184.677566 289.315092 
L 185.003886 289.376431 
L 186.961806 289.396008 
L 187.288127 289.465177 
L 188.593407 289.492584 
L 189.572367 289.232871 
L 195.44613 288.877886 
L 196.42509 288.841343 
L 198.056691 288.774784 
L 198.383011 288.836123 
L 198.709331 289.129769 
L 201.972532 289.260278 
L 203.277812 289.200244 
L 205.235733 289.093226 
L 205.562053 289.034497 
L 206.867334 289.068429 
L 207.193654 288.960107 
L 208.825255 289.098447 
L 209.477895 289.240702 
L 210.130535 289.084091 
L 211.435815 289.025361 
L 211.762136 289.187193 
L 212.088456 288.986209 
L 213.393736 288.887022 
L 213.720056 289.094531 
L 214.699017 289.017531 
L 216.330617 289.005785 
L 218.288538 289.325533 
L 219.267498 289.277244 
L 221.551739 289.35816 
L 222.85702 289.129769 
L 225.467581 289.07104 
L 225.793901 288.995344 
L 226.120221 289.050158 
L 228.078142 289.052768 
L 228.404462 289.155871 
L 229.383422 289.184583 
L 229.709742 289.069735 
L 230.688703 288.961412 
L 232.320303 288.588156 
L 232.646623 288.462867 
L 232.972943 288.462867 
L 234.604544 288.589461 
L 234.930864 288.38778 
L 235.257184 288.726495 
L 236.888785 288.819157 
L 237.215105 288.72519 
L 237.541425 288.911818 
L 238.846706 288.857005 
L 239.173026 289.14804 
L 240.804626 289.187193 
L 241.130946 289.102362 
L 242.109907 289.209379 
L 243.415187 289.2916 
L 243.741507 289.369906 
L 244.067828 289.187193 
L 253.531111 289.456042 
L 255.489032 289.372516 
L 255.815352 289.2916 
L 259.078553 289.540177 
L 260.383834 288.900073 
L 262.015434 288.992038 
L 262.341754 288.723885 
L 263.647035 288.577019 
L 264.299675 288.635835 
L 264.625995 288.479137 
L 265.931276 288.391087 
L 266.257596 288.218815 
L 266.583916 288.214899 
L 266.910236 287.987813 
L 268.215517 288.293205 
L 270.499757 288.195323 
L 271.478718 287.216504 
L 271.805038 287.314386 
L 273.762959 287.568879 
L 274.089279 287.333962 
L 275.394559 287.200843 
L 275.720879 287.290894 
L 276.047199 287.177351 
L 276.37352 287.23608 
L 277.35248 287.063808 
L 277.6788 286.766247 
L 278.65776 288.122847 
L 279.636721 287.760727 
L 279.963041 287.361369 
L 280.615681 287.670676 
L 280.942001 287.474912 
L 281.920962 287.298725 
L 282.247282 287.040316 
L 282.899922 287.091215 
L 284.531523 287.318301 
L 284.857843 287.122537 
L 287.142084 287.0873 
L 287.794724 286.758417 
L 291.384245 286.640958 
L 292.363205 286.918943 
L 293.342166 286.574399 
L 293.668486 286.864129 
L 294.321126 286.8054 
L 294.647446 286.922858 
L 295.626407 286.824976 
L 295.952727 286.609636 
L 296.279047 286.554822 
L 296.605367 286.061497 
L 296.931687 286.178956 
L 297.910648 286.359058 
L 298.563288 286.116311 
L 299.215928 286.265092 
L 300.847529 285.955785 
L 302.805449 286.022345 
L 305.08969 285.298019 
L 306.068651 285.724784 
L 307.047611 285.662139 
L 307.373931 285.505528 
L 308.352891 285.368493 
L 310.310812 285.023949 
L 310.637132 284.808609 
L 311.942413 284.812524 
L 312.268733 284.518879 
L 312.595053 284.867338 
L 313.900333 284.847762 
L 314.226654 284.67549 
L 314.552974 284.691151 
L 315.205614 284.413166 
L 316.184574 284.240894 
L 316.510894 284.389674 
L 316.837215 284.103859 
L 317.489855 283.175939 
L 318.468815 283.222922 
L 318.795135 283.457839 
L 319.121455 283.359957 
L 319.774096 284.072537 
L 321.079376 284.240894 
L 321.405696 284.162588 
L 321.732016 284.26047 
L 324.342577 283.951163 
L 325.647858 284.084283 
L 325.974178 284.448404 
L 326.300498 284.338776 
L 326.626818 284.698981 
L 327.605779 284.565862 
L 327.932099 284.679405 
L 328.258419 284.926067 
L 328.911059 284.730303 
L 329.890019 284.702897 
L 330.216339 284.808609 
L 331.1953 284.370098 
L 332.17426 284.143012 
L 332.8269 282.541664 
L 333.153221 282.514257 
L 333.479541 282.764835 
L 334.458501 281.979778 
L 334.784821 281.333845 
L 335.111141 282.377222 
L 335.437461 282.017017 
L 335.763782 282.991921 
L 337.069062 282.381138 
L 337.395382 281.441471 
L 337.721702 280.922654 
L 338.048022 280.912909 
L 339.679623 281.167402 
L 340.005943 281.725285 
L 340.332263 281.519777 
L 341.637544 280.413668 
L 342.616504 276.664834 
L 343.595464 277.408737 
L 343.921785 277.800265 
L 344.248105 279.190188 
L 344.574425 277.937299 
L 344.900745 278.299419 
L 345.879705 277.75128 
L 346.206025 276.351612 
L 346.858666 274.814823 
L 347.184986 273.121509 
L 348.163946 271.261753 
L 348.490266 269.22581 
L 349.469227 268.873435 
L 350.448187 269.264962 
L 351.100827 269.16708 
L 351.427147 268.658095 
L 351.753467 267.131137 
L 352.732428 264.684089 
L 353.711388 257.32337 
L 354.037708 255.561496 
L 355.342989 259.183126 
L 355.995629 264.938582 
L 356.321949 264.370867 
L 357.30091 265.075617 
L 357.62723 265.05604 
L 358.27987 259.457195 
L 358.60619 258.967786 
L 359.58515 258.88948 
L 360.564111 248.044165 
L 362.195711 245.773305 
L 362.848352 241.564383 
L 363.174672 242.641084 
L 364.479952 235.691469 
L 364.806272 235.887233 
L 365.458913 234.419004 
L 366.437873 231.091019 
L 366.764193 229.182279 
L 367.090513 229.035499 
L 367.743153 240.928107 
L 368.722114 239.019454 
L 369.048434 235.348839 
L 370.027394 218.219505 
L 371.332675 215.283048 
L 371.658995 213.080749 
L 371.985315 209.752764 
L 372.311635 204.956551 
L 373.290595 207.941905 
L 373.943236 208.969709 
L 374.269556 209.752764 
L 374.595876 209.361236 
L 375.574836 204.858669 
L 375.901156 196.196076 
L 376.553797 214.304229 
L 376.880117 216.604497 
L 378.185397 221.107065 
L 378.511717 220.764435 
L 379.164358 208.333433 
L 380.143318 209.557 
L 380.469638 209.165472 
L 380.795958 210.340055 
L 381.122278 208.382417 
L 381.448598 207.599362 
L 382.753879 195.65777 
L 383.080199 190.959438 
L 383.406519 180.877602 
L 383.732839 178.23479 
L 384.7118 177.353853 
L 385.03812 166.488962 
L 385.36444 163.063095 
L 385.69076 167.95719 
L 386.01708 170.404238 
L 386.996041 170.110592 
L 387.322361 162.573685 
L 387.975001 155.721952 
L 388.301321 156.700771 
L 389.280281 156.700771 
L 389.606601 163.944032 
L 389.932922 167.076253 
L 390.259242 167.076253 
L 390.585562 169.229655 
L 391.890842 167.859308 
L 392.217162 169.523301 
L 392.543483 169.033891 
L 392.869803 164.824969 
L 393.848763 162.965213 
L 394.175083 160.616047 
L 394.501403 167.467781 
L 394.827723 161.105457 
L 395.154044 162.573685 
L 396.133004 168.152954 
L 396.459324 167.663545 
L 396.785644 168.544482 
L 397.111964 163.748268 
L 397.438284 162.769449 
L 398.743565 161.79063 
L 399.069885 160.713929 
L 399.396205 160.126638 
L 399.722525 160.028756 
L 400.701486 146.912581 
L 401.027806 146.423171 
L 401.354126 145.052824 
L 401.680446 139.66932 
L 402.006766 124.497624 
L 402.985726 124.399742 
L 403.638367 115.590371 
L 404.291007 122.442104 
L 405.269967 121.561167 
L 405.596287 113.143323 
L 405.922608 115.394607 
L 406.248928 114.220024 
L 406.575248 107.074645 
L 407.554208 108.738638 
L 407.880528 108.151346 
L 408.533169 104.192567 
L 408.859489 103.409512 
L 409.838449 100.364297 
L 410.164769 100.364297 
L 410.491089 92.533744 
L 410.817409 72.739848 
L 411.143729 69.042087 
L 412.12269 46.855522 
L 412.44901 47.290552 
L 412.77533 47.508068 
L 413.10165 49.900737 
L 413.42797 39.46 
L 414.406931 39.677515 
L 414.406931 39.677515 
" clip-path="url(#p3cf89397cf)" style="fill: none; stroke: #1f77b4; stroke-width: 1.5; stroke-linecap: square"/>
   </g>
   <g id="patch_3">
    <path d="M 50.87 303.64 
L 50.87 26.88 
" style="fill: none; stroke: #000000; stroke-width: 0.8; stroke-linejoin: miter; stroke-linecap: square"/>
   </g>
   <g id="patch_4">
    <path d="M 431.718213 303.64 
L 431.718213 26.88 
" style="fill: none; stroke: #000000; stroke-width: 0.8; stroke-linejoin: miter; stroke-linecap: square"/>
   </g>
   <g id="patch_5">
    <path d="M 50.87 303.64 
L 431.718213 303.64 
" style="fill: none; stroke: #000000; stroke-width: 0.8; stroke-linejoin: miter; stroke-linecap: square"/>
   </g>
   <g id="patch_6">
    <path d="M 50.87 26.88 
L 431.718213 26.88 
" style="fill: none; stroke: #000000; stroke-width: 0.8; stroke-linejoin: miter; stroke-linecap: square"/>
   </g>
   <g id="text_20">
    <!-- TERA - 03-01-1986'dan bugüne kapanış fiyatı -->
    <g transform="translate(105.427857 20.88) scale(0.12 -0.12)">
     <defs>
      <path id="DejaVuSans-45" d="M 628 4666 
L 3578 4666 
L 3578 4134 
L 1259 4134 
L 1259 2753 
L 3481 2753 
L 3481 2222 
L 1259 2222 
L 1259 531 
L 3634 531 
L 3634 0 
L 628 0 
L 628 4666 
z
" transform="scale(0.015625)"/>
      <path id="DejaVuSans-52" d="M 2841 2188 
Q 3044 2119 3236 1894 
Q 3428 1669 3622 1275 
L 4263 0 
L 3584 0 
L 2988 1197 
Q 2756 1666 2539 1819 
Q 2322 1972 1947 1972 
L 1259 1972 
L 1259 0 
L 628 0 
L 628 4666 
L 2053 4666 
Q 2853 4666 3247 4331 
Q 3641 3997 3641 3322 
Q 3641 2881 3436 2590 
Q 3231 2300 2841 2188 
z
M 1259 4147 
L 1259 2491 
L 2053 2491 
Q 2509 2491 2742 2702 
Q 2975 2913 2975 3322 
Q 2975 3731 2742 3939 
Q 2509 4147 2053 4147 
L 1259 4147 
z
" transform="scale(0.015625)"/>
      <path id="DejaVuSans-41" d="M 2188 4044 
L 1331 1722 
L 3047 1722 
L 2188 4044 
z
M 1831 4666 
L 2547 4666 
L 4325 0 
L 3669 0 
L 3244 1197 
L 1141 1197 
L 716 0 
L 50 0 
L 1831 4666 
z
" transform="scale(0.015625)"/>
      <path id="DejaVuSans-38" d="M 2034 2216 
Q 1584 2216 1326 1975 
Q 1069 1734 1069 1313 
Q 1069 891 1326 650 
Q 1584 409 2034 409 
Q 2484 409 2743 651 
Q 3003 894 3003 1313 
Q 3003 1734 2745 1975 
Q 2488 2216 2034 2216 
z
M 1403 2484 
Q 997 2584 770 2862 
Q 544 3141 544 3541 
Q 544 4100 942 4425 
Q 1341 4750 2034 4750 
Q 2731 4750 3128 4425 
Q 3525 4100 3525 3541 
Q 3525 3141 3298 2862 
Q 3072 2584 2669 2484 
Q 3125 2378 3379 2068 
Q 3634 1759 3634 1313 
Q 3634 634 3220 271 
Q 2806 -91 2034 -91 
Q 1263 -91 848 271 
Q 434 634 434 1313 
Q 434 1759 690 2068 
Q 947 2378 1403 2484 
z
M 1172 3481 
Q 1172 3119 1398 2916 
Q 1625 2713 2034 2713 
Q 2441 2713 2670 2916 
Q 2900 3119 2900 3481 
Q 2900 3844 2670 4047 
Q 2441 4250 2034 4250 
Q 1625 4250 1398 4047 
Q 1172 3844 1172 3481 
z
" transform="scale(0.015625)"/>
      <path id="DejaVuSans-27" d="M 1147 4666 
L 1147 2931 
L 616 2931 
L 616 4666 
L 1147 4666 
z
" transform="scale(0.015625)"/>
      <path id="DejaVuSans-64" d="M 2906 2969 
L 2906 4863 
L 3481 4863 
L 3481 0 
L 2906 0 
L 2906 525 
Q 2725 213 2448 61 
Q 2172 -91 1784 -91 
Q 1150 -91 751 415 
Q 353 922 353 1747 
Q 353 2572 751 3078 
Q 1150 3584 1784 3584 
Q 2172 3584 2448 3432 
Q 2725 3281 2906 2969 
z
M 947 1747 
Q 947 1113 1208 752 
Q 1469 391 1925 391 
Q 2381 391 2643 752 
Q 2906 1113 2906 1747 
Q 2906 2381 2643 2742 
Q 2381 3103 1925 3103 
Q 1469 3103 1208 2742 
Q 947 2381 947 1747 
z
" transform="scale(0.015625)"/>
      <path id="DejaVuSans-62" d="M 3116 1747 
Q 3116 2381 2855 2742 
Q 2594 3103 2138 3103 
Q 1681 3103 1420 2742 
Q 1159 2381 1159 1747 
Q 1159 1113 1420 752 
Q 1681 391 2138 391 
Q 2594 391 2855 752 
Q 3116 1113 3116 1747 
z
M 1159 2969 
Q 1341 3281 1617 3432 
Q 1894 3584 2278 3584 
Q 2916 3584 3314 3078 
Q 3713 2572 3713 1747 
Q 3713 922 3314 415 
Q 2916 -91 2278 -91 
Q 1894 -91 1617 61 
Q 1341 213 1159 525 
L 1159 0 
L 581 0 
L 581 4863 
L 1159 4863 
L 1159 2969 
z
" transform="scale(0.015625)"/>
      <path id="DejaVuSans-75" d="M 544 1381 
L 544 3500 
L 1119 3500 
L 1119 1403 
Q 1119 906 1312 657 
Q 1506 409 1894 409 
Q 2359 409 2629 706 
Q 2900 1003 2900 1516 
L 2900 3500 
L 3475 3500 
L 3475 0 
L 2900 0 
L 2900 538 
Q 2691 219 2414 64 
Q 2138 -91 1772 -91 
Q 1169 -91 856 284 
Q 544 659 544 1381 
z
M 1991 3584 
L 1991 3584 
z
" transform="scale(0.015625)"/>
      <path id="DejaVuSans-67" d="M 2906 1791 
Q 2906 2416 2648 2759 
Q 2391 3103 1925 3103 
Q 1463 3103 1205 2759 
Q 947 2416 947 1791 
Q 947 1169 1205 825 
Q 1463 481 1925 481 
Q 2391 481 2648 825 
Q 2906 1169 2906 1791 
z
M 3481 434 
Q 3481 -459 3084 -895 
Q 2688 -1331 1869 -1331 
Q 1566 -1331 1297 -1286 
Q 1028 -1241 775 -1147 
L 775 -588 
Q 1028 -725 1275 -790 
Q 1522 -856 1778 -856 
Q 2344 -856 2625 -561 
Q 2906 -266 2906 331 
L 2906 616 
Q 2728 306 2450 153 
Q 2172 0 1784 0 
Q 1141 0 747 490 
Q 353 981 353 1791 
Q 353 2603 747 3093 
Q 1141 3584 1784 3584 
Q 2172 3584 2450 3431 
Q 2728 3278 2906 2969 
L 2906 3500 
L 3481 3500 
L 3481 434 
z
" transform="scale(0.015625)"/>
      <path id="DejaVuSans-fc" d="M 544 1381 
L 544 3500 
L 1119 3500 
L 1119 1403 
Q 1119 906 1312 657 
Q 1506 409 1894 409 
Q 2359 409 2629 706 
Q 2900 1003 2900 1516 
L 2900 3500 
L 3475 3500 
L 3475 0 
L 2900 0 
L 2900 538 
Q 2691 219 2414 64 
Q 2138 -91 1772 -91 
Q 1169 -91 856 284 
Q 544 659 544 1381 
z
M 1991 3584 
L 1991 3584 
z
M 2278 4850 
L 2912 4850 
L 2912 4219 
L 2278 4219 
L 2278 4850 
z
M 1056 4850 
L 1690 4850 
L 1690 4219 
L 1056 4219 
L 1056 4850 
z
" transform="scale(0.015625)"/>
      <path id="DejaVuSans-65" d="M 3597 1894 
L 3597 1613 
L 953 1613 
Q 991 1019 1311 708 
Q 1631 397 2203 397 
Q 2534 397 2845 478 
Q 3156 559 3463 722 
L 3463 178 
Q 3153 47 2828 -22 
Q 2503 -91 2169 -91 
Q 1331 -91 842 396 
Q 353 884 353 1716 
Q 353 2575 817 3079 
Q 1281 3584 2069 3584 
Q 2775 3584 3186 3129 
Q 3597 2675 3597 1894 
z
M 3022 2063 
Q 3016 2534 2758 2815 
Q 2500 3097 2075 3097 
Q 1594 3097 1305 2825 
Q 1016 2553 972 2059 
L 3022 2063 
z
" transform="scale(0.015625)"/>
      <path id="DejaVuSans-6b" d="M 581 4863 
L 1159 4863 
L 1159 1991 
L 2875 3500 
L 3609 3500 
L 1753 1863 
L 3688 0 
L 2938 0 
L 1159 1709 
L 1159 0 
L 581 0 
L 581 4863 
z
" transform="scale(0.015625)"/>
      <path id="DejaVuSans-66" d="M 2375 4863 
L 2375 4384 
L 1825 4384 
Q 1516 4384 1395 4259 
Q 1275 4134 1275 3809 
L 1275 3500 
L 2222 3500 
L 2222 3053 
L 1275 3053 
L 1275 0 
L 697 0 
L 697 3053 
L 147 3053 
L 147 3500 
L 697 3500 
L 697 3744 
Q 697 4328 969 4595 
Q 1241 4863 1831 4863 
L 2375 4863 
z
" transform="scale(0.015625)"/>
     </defs>
     <use xlink:href="#DejaVuSans-54"/>
     <use xlink:href="#DejaVuSans-45" transform="translate(61.083984 0)"/>
     <use xlink:href="#DejaVuSans-52" transform="translate(124.267578 0)"/>
     <use xlink:href="#DejaVuSans-41" transform="translate(189.75 0)"/>
     <use xlink:href="#DejaVuSans-20" transform="translate(258.158203 0)"/>
     <use xlink:href="#DejaVuSans-2d" transform="translate(289.945312 0)"/>
     <use xlink:href="#DejaVuSans-20" transform="translate(326.029297 0)"/>
     <use xlink:href="#DejaVuSans-30" transform="translate(357.816406 0)"/>
     <use xlink:href="#DejaVuSans-33" transform="translate(421.439453 0)"/>
     <use xlink:href="#DejaVuSans-2d" transform="translate(485.0625 0)"/>
     <use xlink:href="#DejaVuSans-30" transform="translate(521.146484 0)"/>
     <use xlink:href="#DejaVuSans-31" transform="translate(584.769531 0)"/>
     <use xlink:href="#DejaVuSans-2d" transform="translate(648.392578 0)"/>
     <use xlink:href="#DejaVuSans-31" transform="translate(684.476562 0)"/>
     <use xlink:href="#DejaVuSans-39" transform="translate(748.099609 0)"/>
     <use xlink:href="#DejaVuSans-38" transform="translate(811.722656 0)"/>
     <use xlink:href="#DejaVuSans-36" transform="translate(875.345703 0)"/>
     <use xlink:href="#DejaVuSans-27" transform="translate(938.96875 0)"/>
     <use xlink:href="#DejaVuSans-64" transform="translate(966.458984 0)"/>
     <use xlink:href="#DejaVuSans-61" transform="translate(1029.935547 0)"/>
     <use xlink:href="#DejaVuSans-6e" transform="translate(1091.214844 0)"/>
     <use xlink:href="#DejaVuSans-20" transform="translate(1154.59375 0)"/>
     <use xlink:href="#DejaVuSans-62" transform="translate(1186.380859 0)"/>
     <use xlink:href="#DejaVuSans-75" transform="translate(1249.857422 0)"/>
     <use xlink:href="#DejaVuSans-67" transform="translate(1313.236328 0)"/>
     <use xlink:href="#DejaVuSans-fc" transform="translate(1376.712891 0)"/>
     <use xlink:href="#DejaVuSans-6e" transform="translate(1440.091797 0)"/>
     <use xlink:href="#DejaVuSans-65" transform="translate(1503.470703 0)"/>
     <use xlink:href="#DejaVuSans-20" transform="translate(1564.994141 0)"/>
     <use xlink:href="#DejaVuSans-6b" transform="translate(1596.78125 0)"/>
     <use xlink:href="#DejaVuSans-61" transform="translate(1652.941406 0)"/>
     <use xlink:href="#DejaVuSans-70" transform="translate(1714.220703 0)"/>
     <use xlink:href="#DejaVuSans-61" transform="translate(1777.697266 0)"/>
     <use xlink:href="#DejaVuSans-6e" transform="translate(1838.976562 0)"/>
     <use xlink:href="#DejaVuSans-131" transform="translate(1902.355469 0)"/>
     <use xlink:href="#DejaVuSans-15f" transform="translate(1930.138672 0)"/>
     <use xlink:href="#DejaVuSans-20" transform="translate(1982.238281 0)"/>
     <use xlink:href="#DejaVuSans-66" transform="translate(2014.025391 0)"/>
     <use xlink:href="#DejaVuSans-69" transform="translate(2049.230469 0)"/>
     <use xlink:href="#DejaVuSans-79" transform="translate(2077.013672 0)"/>
     <use xlink:href="#DejaVuSans-61" transform="translate(2136.193359 0)"/>
     <use xlink:href="#DejaVuSans-74" transform="translate(2197.472656 0)"/>
     <use xlink:href="#DejaVuSans-131" transform="translate(2236.681641 0)"/>
    </g>
   </g>
  </g>
 </g>
 <defs>
  <clipPath id="p3cf89397cf">
   <rect x="50.87" y="26.88" width="380.848213" height="276.76"/>
  </clipPath>
 </defs>
</svg>
